<svg xmlns="http://www.w3.org/2000/svg" version="1.1" xmlns:xlink="http://www.w3.org/1999/xlink" xmlns:svgjs="http://svgjs.dev/svgjs" width="1440" height="560" preserveAspectRatio="none" viewBox="0 0 1440 560"><g mask="url(&quot;#SvgjsMask1008&quot;)" fill="none"><rect width="1440" height="560" x="0" y="0" fill="rgba(57, 62, 70, 1)"></rect><path d="M-82.62 342.73L-82.62 342.73" stroke="rgba(34, 40, 49, 1)" stroke-width="1.5"></path><path d="M-82.62 342.73L44.82 346.96" stroke="rgba(34, 40, 49, 1)" stroke-width="1.5"></path><path d="M-82.62 342.73L-72.28 530.55" stroke="rgba(34, 40, 49, 1)" stroke-width="1.5"></path><path d="M-82.62 342.73L-54.54 638.43" stroke="rgba(34, 40, 49, 1)" stroke-width="1.5"></path><path d="M-72.28 530.55L-72.28 530.55" stroke="rgba(34, 40, 49, 1)" stroke-width="1.5"></path><path d="M-72.28 530.55L-54.54 638.43" stroke="rgba(34, 40, 49, 1)" stroke-width="1.5"></path><path d="M-72.28 530.55L43.1 666.7" stroke="rgba(34, 40, 49, 1)" stroke-width="1.5"></path><path d="M-72.28 530.55L44.82 346.96" stroke="rgba(34, 40, 49, 1)" stroke-width="1.5"></path><path d="M-72.28 530.55L194.48 549.59" stroke="rgba(34, 40, 49, 1)" stroke-width="1.5"></path><path d="M-54.54 638.43L-54.54 638.43" stroke="rgba(34, 40, 49, 1)" stroke-width="1.5"></path><path d="M-54.54 638.43L43.1 666.7" stroke="rgba(34, 40, 49, 1)" stroke-width="1.5"></path><path d="M-54.54 638.43L194.48 549.59" stroke="rgba(34, 40, 49, 1)" stroke-width="1.5"></path><path d="M-54.54 638.43L241.7 703.1" stroke="rgba(34, 40, 49, 1)" stroke-width="1.5"></path><path d="M-54.54 638.43L44.82 346.96" stroke="rgba(34, 40, 49, 1)" stroke-width="1.5"></path><path d="M44.82 346.96L44.82 346.96" stroke="rgba(34, 40, 49, 1)" stroke-width="1.5"></path><path d="M44.82 346.96L252.11 356.27" stroke="rgba(34, 40, 49, 1)" stroke-width="1.5"></path><path d="M43.1 666.7L43.1 666.7" stroke="rgba(34, 40, 49, 1)" stroke-width="1.5"></path><path d="M43.1 666.7L194.48 549.59" stroke="rgba(34, 40, 49, 1)" stroke-width="1.5"></path><path d="M43.1 666.7L241.7 703.1" stroke="rgba(34, 40, 49, 1)" stroke-width="1.5"></path><path d="M252.11 356.27L252.11 356.27" stroke="rgba(34, 40, 49, 1)" stroke-width="1.5"></path><path d="M252.11 356.27L194.48 549.59" stroke="rgba(34, 40, 49, 1)" stroke-width="1.5"></path><path d="M252.11 356.27L386.82 545.94" stroke="rgba(34, 40, 49, 1)" stroke-width="1.5"></path><path d="M252.11 356.27L519.25 387.64" stroke="rgba(34, 40, 49, 1)" stroke-width="1.5"></path><path d="M252.11 356.27L389.92 642.45" stroke="rgba(34, 40, 49, 1)" stroke-width="1.5"></path><path d="M252.11 356.27L-82.62 342.73" stroke="rgba(34, 40, 49, 1)" stroke-width="1.5"></path><path d="M194.48 549.59L194.48 549.59" stroke="rgba(34, 40, 49, 1)" stroke-width="1.5"></path><path d="M194.48 549.59L241.7 703.1" stroke="rgba(34, 40, 49, 1)" stroke-width="1.5"></path><path d="M194.48 549.59L386.82 545.94" stroke="rgba(34, 40, 49, 1)" stroke-width="1.5"></path><path d="M241.7 703.1L241.7 703.1" stroke="rgba(34, 40, 49, 1)" stroke-width="1.5"></path><path d="M241.7 703.1L389.92 642.45" stroke="rgba(34, 40, 49, 1)" stroke-width="1.5"></path><path d="M241.7 703.1L386.82 545.94" stroke="rgba(34, 40, 49, 1)" stroke-width="1.5"></path><path d="M386.82 545.94L386.82 545.94" stroke="rgba(34, 40, 49, 1)" stroke-width="1.5"></path><path d="M386.82 545.94L389.92 642.45" stroke="rgba(34, 40, 49, 1)" stroke-width="1.5"></path><path d="M386.82 545.94L531.33 543.92" stroke="rgba(34, 40, 49, 1)" stroke-width="1.5"></path><path d="M386.82 545.94L519.25 387.64" stroke="rgba(34, 40, 49, 1)" stroke-width="1.5"></path><path d="M389.92 642.45L389.92 642.45" stroke="rgba(34, 40, 49, 1)" stroke-width="1.5"></path><path d="M389.92 642.45L559.59 663.21" stroke="rgba(34, 40, 49, 1)" stroke-width="1.5"></path><path d="M389.92 642.45L531.33 543.92" stroke="rgba(34, 40, 49, 1)" stroke-width="1.5"></path><path d="M389.92 642.45L194.48 549.59" stroke="rgba(34, 40, 49, 1)" stroke-width="1.5"></path><path d="M519.25 387.64L519.25 387.64" stroke="rgba(34, 40, 49, 1)" stroke-width="1.5"></path><path d="M519.25 387.64L668.23 402.76" stroke="rgba(34, 40, 49, 1)" stroke-width="1.5"></path><path d="M519.25 387.64L531.33 543.92" stroke="rgba(34, 40, 49, 1)" stroke-width="1.5"></path><path d="M519.25 387.64L686.74 526.1" stroke="rgba(34, 40, 49, 1)" stroke-width="1.5"></path><path d="M519.25 387.64L559.59 663.21" stroke="rgba(34, 40, 49, 1)" stroke-width="1.5"></path><path d="M531.33 543.92L531.33 543.92" stroke="rgba(34, 40, 49, 1)" stroke-width="1.5"></path><path d="M531.33 543.92L559.59 663.21" stroke="rgba(34, 40, 49, 1)" stroke-width="1.5"></path><path d="M531.33 543.92L686.74 526.1" stroke="rgba(34, 40, 49, 1)" stroke-width="1.5"></path><path d="M559.59 663.21L559.59 663.21" stroke="rgba(34, 40, 49, 1)" stroke-width="1.5"></path><path d="M559.59 663.21L657.22 706.16" stroke="rgba(34, 40, 49, 1)" stroke-width="1.5"></path><path d="M559.59 663.21L686.74 526.1" stroke="rgba(34, 40, 49, 1)" stroke-width="1.5"></path><path d="M668.23 402.76L668.23 402.76" stroke="rgba(34, 40, 49, 1)" stroke-width="1.5"></path><path d="M668.23 402.76L686.74 526.1" stroke="rgba(34, 40, 49, 1)" stroke-width="1.5"></path><path d="M668.23 402.76L795.11 513.75" stroke="rgba(34, 40, 49, 1)" stroke-width="1.5"></path><path d="M686.74 526.1L686.74 526.1" stroke="rgba(34, 40, 49, 1)" stroke-width="1.5"></path><path d="M686.74 526.1L795.11 513.75" stroke="rgba(34, 40, 49, 1)" stroke-width="1.5"></path><path d="M686.74 526.1L657.22 706.16" stroke="rgba(34, 40, 49, 1)" stroke-width="1.5"></path><path d="M686.74 526.1L799.97 670.38" stroke="rgba(34, 40, 49, 1)" stroke-width="1.5"></path><path d="M657.22 706.16L657.22 706.16" stroke="rgba(34, 40, 49, 1)" stroke-width="1.5"></path><path d="M657.22 706.16L799.97 670.38" stroke="rgba(34, 40, 49, 1)" stroke-width="1.5"></path><path d="M657.22 706.16L531.33 543.92" stroke="rgba(34, 40, 49, 1)" stroke-width="1.5"></path><path d="M802.58 241.15L802.58 241.15" stroke="rgba(34, 40, 49, 1)" stroke-width="1.5"></path><path d="M802.58 241.15L849.41 366.85" stroke="rgba(34, 40, 49, 1)" stroke-width="1.5"></path><path d="M802.58 241.15L954.99 196.25" stroke="rgba(34, 40, 49, 1)" stroke-width="1.5"></path><path d="M849.41 366.85L849.41 366.85" stroke="rgba(34, 40, 49, 1)" stroke-width="1.5"></path><path d="M849.41 366.85L990.16 377.42" stroke="rgba(34, 40, 49, 1)" stroke-width="1.5"></path><path d="M795.11 513.75L795.11 513.75" stroke="rgba(34, 40, 49, 1)" stroke-width="1.5"></path><path d="M795.11 513.75L849.41 366.85" stroke="rgba(34, 40, 49, 1)" stroke-width="1.5"></path><path d="M795.11 513.75L799.97 670.38" stroke="rgba(34, 40, 49, 1)" stroke-width="1.5"></path><path d="M799.97 670.38L799.97 670.38" stroke="rgba(34, 40, 49, 1)" stroke-width="1.5"></path><path d="M980.9 55.44L980.9 55.44" stroke="rgba(34, 40, 49, 1)" stroke-width="1.5"></path><path d="M980.9 55.44L954.99 196.25" stroke="rgba(34, 40, 49, 1)" stroke-width="1.5"></path><path d="M980.9 55.44L1099.16 193.49" stroke="rgba(34, 40, 49, 1)" stroke-width="1.5"></path><path d="M980.9 55.44L1122.72 -78.37" stroke="rgba(34, 40, 49, 1)" stroke-width="1.5"></path><path d="M980.9 55.44L802.58 241.15" stroke="rgba(34, 40, 49, 1)" stroke-width="1.5"></path><path d="M980.9 55.44L1267.07 103.3" stroke="rgba(34, 40, 49, 1)" stroke-width="1.5"></path><path d="M954.99 196.25L954.99 196.25" stroke="rgba(34, 40, 49, 1)" stroke-width="1.5"></path><path d="M954.99 196.25L1099.16 193.49" stroke="rgba(34, 40, 49, 1)" stroke-width="1.5"></path><path d="M954.99 196.25L990.16 377.42" stroke="rgba(34, 40, 49, 1)" stroke-width="1.5"></path><path d="M990.16 377.42L990.16 377.42" stroke="rgba(34, 40, 49, 1)" stroke-width="1.5"></path><path d="M990.16 377.42L1103.01 358.82" stroke="rgba(34, 40, 49, 1)" stroke-width="1.5"></path><path d="M997.77 514.81L997.77 514.81" stroke="rgba(34, 40, 49, 1)" stroke-width="1.5"></path><path d="M997.77 514.81L1096.68 562.18" stroke="rgba(34, 40, 49, 1)" stroke-width="1.5"></path><path d="M997.77 514.81L990.16 377.42" stroke="rgba(34, 40, 49, 1)" stroke-width="1.5"></path><path d="M953.95 665.15L953.95 665.15" stroke="rgba(34, 40, 49, 1)" stroke-width="1.5"></path><path d="M953.95 665.15L799.97 670.38" stroke="rgba(34, 40, 49, 1)" stroke-width="1.5"></path><path d="M953.95 665.15L997.77 514.81" stroke="rgba(34, 40, 49, 1)" stroke-width="1.5"></path><path d="M953.95 665.15L1096.68 562.18" stroke="rgba(34, 40, 49, 1)" stroke-width="1.5"></path><path d="M953.95 665.15L1155.08 650.58" stroke="rgba(34, 40, 49, 1)" stroke-width="1.5"></path><path d="M953.95 665.15L795.11 513.75" stroke="rgba(34, 40, 49, 1)" stroke-width="1.5"></path><path d="M1122.72 -78.37L1122.72 -78.37" stroke="rgba(34, 40, 49, 1)" stroke-width="1.5"></path><path d="M1122.72 -78.37L1310.13 -48.84" stroke="rgba(34, 40, 49, 1)" stroke-width="1.5"></path><path d="M1122.72 -78.37L1267.07 103.3" stroke="rgba(34, 40, 49, 1)" stroke-width="1.5"></path><path d="M1122.72 -78.37L1099.16 193.49" stroke="rgba(34, 40, 49, 1)" stroke-width="1.5"></path><path d="M1122.72 -78.37L1425.65 -66.52" stroke="rgba(34, 40, 49, 1)" stroke-width="1.5"></path><path d="M1099.16 193.49L1099.16 193.49" stroke="rgba(34, 40, 49, 1)" stroke-width="1.5"></path><path d="M1099.16 193.49L1103.01 358.82" stroke="rgba(34, 40, 49, 1)" stroke-width="1.5"></path><path d="M1103.01 358.82L1103.01 358.82" stroke="rgba(34, 40, 49, 1)" stroke-width="1.5"></path><path d="M1103.01 358.82L997.77 514.81" stroke="rgba(34, 40, 49, 1)" stroke-width="1.5"></path><path d="M1103.01 358.82L1096.68 562.18" stroke="rgba(34, 40, 49, 1)" stroke-width="1.5"></path><path d="M1096.68 562.18L1096.68 562.18" stroke="rgba(34, 40, 49, 1)" stroke-width="1.5"></path><path d="M1096.68 562.18L1155.08 650.58" stroke="rgba(34, 40, 49, 1)" stroke-width="1.5"></path><path d="M1096.68 562.18L1246.52 504.61" stroke="rgba(34, 40, 49, 1)" stroke-width="1.5"></path><path d="M1155.08 650.58L1155.08 650.58" stroke="rgba(34, 40, 49, 1)" stroke-width="1.5"></path><path d="M1155.08 650.58L1278.01 712.4" stroke="rgba(34, 40, 49, 1)" stroke-width="1.5"></path><path d="M1310.13 -48.84L1310.13 -48.84" stroke="rgba(34, 40, 49, 1)" stroke-width="1.5"></path><path d="M1310.13 -48.84L1425.65 -66.52" stroke="rgba(34, 40, 49, 1)" stroke-width="1.5"></path><path d="M1310.13 -48.84L1267.07 103.3" stroke="rgba(34, 40, 49, 1)" stroke-width="1.5"></path><path d="M1267.07 103.3L1267.07 103.3" stroke="rgba(34, 40, 49, 1)" stroke-width="1.5"></path><path d="M1267.07 103.3L1276.53 246.1" stroke="rgba(34, 40, 49, 1)" stroke-width="1.5"></path><path d="M1267.07 103.3L1099.16 193.49" stroke="rgba(34, 40, 49, 1)" stroke-width="1.5"></path><path d="M1276.53 246.1L1276.53 246.1" stroke="rgba(34, 40, 49, 1)" stroke-width="1.5"></path><path d="M1276.53 246.1L1307.2 399.87" stroke="rgba(34, 40, 49, 1)" stroke-width="1.5"></path><path d="M1276.53 246.1L1442.47 223.13" stroke="rgba(34, 40, 49, 1)" stroke-width="1.5"></path><path d="M1276.53 246.1L1099.16 193.49" stroke="rgba(34, 40, 49, 1)" stroke-width="1.5"></path><path d="M1307.2 399.87L1307.2 399.87" stroke="rgba(34, 40, 49, 1)" stroke-width="1.5"></path><path d="M1307.2 399.87L1246.52 504.61" stroke="rgba(34, 40, 49, 1)" stroke-width="1.5"></path><path d="M1307.2 399.87L1427.88 369.19" stroke="rgba(34, 40, 49, 1)" stroke-width="1.5"></path><path d="M1307.2 399.87L1400.35 553.68" stroke="rgba(34, 40, 49, 1)" stroke-width="1.5"></path><path d="M1307.2 399.87L1103.01 358.82" stroke="rgba(34, 40, 49, 1)" stroke-width="1.5"></path><path d="M1307.2 399.87L1442.47 223.13" stroke="rgba(34, 40, 49, 1)" stroke-width="1.5"></path><path d="M1246.52 504.61L1246.52 504.61" stroke="rgba(34, 40, 49, 1)" stroke-width="1.5"></path><path d="M1246.52 504.61L1400.35 553.68" stroke="rgba(34, 40, 49, 1)" stroke-width="1.5"></path><path d="M1246.52 504.61L1155.08 650.58" stroke="rgba(34, 40, 49, 1)" stroke-width="1.5"></path><path d="M1278.01 712.4L1278.01 712.4" stroke="rgba(34, 40, 49, 1)" stroke-width="1.5"></path><path d="M1278.01 712.4L1430.36 651.49" stroke="rgba(34, 40, 49, 1)" stroke-width="1.5"></path><path d="M1278.01 712.4L1400.35 553.68" stroke="rgba(34, 40, 49, 1)" stroke-width="1.5"></path><path d="M1278.01 712.4L1246.52 504.61" stroke="rgba(34, 40, 49, 1)" stroke-width="1.5"></path><path d="M1278.01 712.4L1096.68 562.18" stroke="rgba(34, 40, 49, 1)" stroke-width="1.5"></path><path d="M1278.01 712.4L1543.21 665.86" stroke="rgba(34, 40, 49, 1)" stroke-width="1.5"></path><path d="M1425.65 -66.52L1425.65 -66.52" stroke="rgba(34, 40, 49, 1)" stroke-width="1.5"></path><path d="M1425.65 -66.52L1558.15 -68.48" stroke="rgba(34, 40, 49, 1)" stroke-width="1.5"></path><path d="M1425.65 -66.52L1267.07 103.3" stroke="rgba(34, 40, 49, 1)" stroke-width="1.5"></path><path d="M1425.65 -66.52L1605.82 99.19" stroke="rgba(34, 40, 49, 1)" stroke-width="1.5"></path><path d="M1442.47 223.13L1442.47 223.13" stroke="rgba(34, 40, 49, 1)" stroke-width="1.5"></path><path d="M1442.47 223.13L1548.85 206.58" stroke="rgba(34, 40, 49, 1)" stroke-width="1.5"></path><path d="M1442.47 223.13L1427.88 369.19" stroke="rgba(34, 40, 49, 1)" stroke-width="1.5"></path><path d="M1442.47 223.13L1572.25 339.56" stroke="rgba(34, 40, 49, 1)" stroke-width="1.5"></path><path d="M1427.88 369.19L1427.88 369.19" stroke="rgba(34, 40, 49, 1)" stroke-width="1.5"></path><path d="M1427.88 369.19L1572.25 339.56" stroke="rgba(34, 40, 49, 1)" stroke-width="1.5"></path><path d="M1427.88 369.19L1400.35 553.68" stroke="rgba(34, 40, 49, 1)" stroke-width="1.5"></path><path d="M1427.88 369.19L1276.53 246.1" stroke="rgba(34, 40, 49, 1)" stroke-width="1.5"></path><path d="M1400.35 553.68L1400.35 553.68" stroke="rgba(34, 40, 49, 1)" stroke-width="1.5"></path><path d="M1400.35 553.68L1430.36 651.49" stroke="rgba(34, 40, 49, 1)" stroke-width="1.5"></path><path d="M1400.35 553.68L1543.21 665.86" stroke="rgba(34, 40, 49, 1)" stroke-width="1.5"></path><path d="M1400.35 553.68L1590.26 556.5" stroke="rgba(34, 40, 49, 1)" stroke-width="1.5"></path><path d="M1430.36 651.49L1430.36 651.49" stroke="rgba(34, 40, 49, 1)" stroke-width="1.5"></path><path d="M1430.36 651.49L1543.21 665.86" stroke="rgba(34, 40, 49, 1)" stroke-width="1.5"></path><path d="M1430.36 651.49L1590.26 556.5" stroke="rgba(34, 40, 49, 1)" stroke-width="1.5"></path><path d="M1430.36 651.49L1246.52 504.61" stroke="rgba(34, 40, 49, 1)" stroke-width="1.5"></path><path d="M1430.36 651.49L1155.08 650.58" stroke="rgba(34, 40, 49, 1)" stroke-width="1.5"></path><path d="M1558.15 -68.48L1558.15 -68.48" stroke="rgba(34, 40, 49, 1)" stroke-width="1.5"></path><path d="M1558.15 -68.48L1605.82 99.19" stroke="rgba(34, 40, 49, 1)" stroke-width="1.5"></path><path d="M1558.15 -68.48L1310.13 -48.84" stroke="rgba(34, 40, 49, 1)" stroke-width="1.5"></path><path d="M1605.82 99.19L1605.82 99.19" stroke="rgba(34, 40, 49, 1)" stroke-width="1.5"></path><path d="M1605.82 99.19L1548.85 206.58" stroke="rgba(34, 40, 49, 1)" stroke-width="1.5"></path><path d="M1605.82 99.19L1442.47 223.13" stroke="rgba(34, 40, 49, 1)" stroke-width="1.5"></path><path d="M1548.85 206.58L1548.85 206.58" stroke="rgba(34, 40, 49, 1)" stroke-width="1.5"></path><path d="M1572.25 339.56L1572.25 339.56" stroke="rgba(34, 40, 49, 1)" stroke-width="1.5"></path><path d="M1572.25 339.56L1548.85 206.58" stroke="rgba(34, 40, 49, 1)" stroke-width="1.5"></path><path d="M1590.26 556.5L1590.26 556.5" stroke="rgba(34, 40, 49, 1)" stroke-width="1.5"></path><path d="M1590.26 556.5L1543.21 665.86" stroke="rgba(34, 40, 49, 1)" stroke-width="1.5"></path><path d="M1543.21 665.86L1543.21 665.86" stroke="rgba(34, 40, 49, 1)" stroke-width="1.5"></path><circle r="5" cx="-82.62" cy="342.73" fill="rgba(34, 40, 49, 1)"></circle><circle r="5" cx="-72.28" cy="530.55" fill="rgba(34, 40, 49, 1)"></circle><circle r="5" cx="-54.54" cy="638.43" fill="rgba(34, 40, 49, 1)"></circle><circle r="5" cx="44.82" cy="346.96" fill="rgba(34, 40, 49, 1)"></circle><circle r="5" cx="43.1" cy="666.7" fill="rgba(34, 40, 49, 1)"></circle><circle r="5" cx="252.11" cy="356.27" fill="rgba(34, 40, 49, 1)"></circle><circle r="5" cx="194.48" cy="549.59" fill="rgba(34, 40, 49, 1)"></circle><circle r="5" cx="241.7" cy="703.1" fill="rgba(34, 40, 49, 1)"></circle><circle r="5" cx="386.82" cy="545.94" fill="rgba(34, 40, 49, 1)"></circle><circle r="5" cx="389.92" cy="642.45" fill="rgba(34, 40, 49, 1)"></circle><circle r="5" cx="519.25" cy="387.64" fill="rgba(34, 40, 49, 1)"></circle><circle r="5" cx="531.33" cy="543.92" fill="rgba(34, 40, 49, 1)"></circle><circle r="5" cx="559.59" cy="663.21" fill="rgba(34, 40, 49, 1)"></circle><circle r="5" cx="668.23" cy="402.76" fill="rgba(34, 40, 49, 1)"></circle><circle r="5" cx="686.74" cy="526.1" fill="rgba(34, 40, 49, 1)"></circle><circle r="5" cx="657.22" cy="706.16" fill="rgba(34, 40, 49, 1)"></circle><circle r="5" cx="802.58" cy="241.15" fill="rgba(34, 40, 49, 1)"></circle><circle r="5" cx="849.41" cy="366.85" fill="rgba(34, 40, 49, 1)"></circle><circle r="5" cx="795.11" cy="513.75" fill="rgba(34, 40, 49, 1)"></circle><circle r="5" cx="799.97" cy="670.38" fill="rgba(34, 40, 49, 1)"></circle><circle r="5" cx="980.9" cy="55.44" fill="rgba(34, 40, 49, 1)"></circle><circle r="5" cx="954.99" cy="196.25" fill="rgba(34, 40, 49, 1)"></circle><circle r="5" cx="990.16" cy="377.42" fill="rgba(34, 40, 49, 1)"></circle><circle r="5" cx="997.77" cy="514.81" fill="rgba(34, 40, 49, 1)"></circle><circle r="5" cx="953.95" cy="665.15" fill="rgba(34, 40, 49, 1)"></circle><circle r="5" cx="1122.72" cy="-78.37" fill="rgba(34, 40, 49, 1)"></circle><circle r="5" cx="1099.16" cy="193.49" fill="rgba(34, 40, 49, 1)"></circle><circle r="5" cx="1103.01" cy="358.82" fill="rgba(34, 40, 49, 1)"></circle><circle r="5" cx="1096.68" cy="562.18" fill="rgba(34, 40, 49, 1)"></circle><circle r="5" cx="1155.08" cy="650.58" fill="rgba(34, 40, 49, 1)"></circle><circle r="5" cx="1310.13" cy="-48.84" fill="rgba(34, 40, 49, 1)"></circle><circle r="5" cx="1267.07" cy="103.3" fill="rgba(34, 40, 49, 1)"></circle><circle r="5" cx="1276.53" cy="246.1" fill="rgba(34, 40, 49, 1)"></circle><circle r="5" cx="1307.2" cy="399.87" fill="rgba(34, 40, 49, 1)"></circle><circle r="5" cx="1246.52" cy="504.61" fill="rgba(34, 40, 49, 1)"></circle><circle r="5" cx="1278.01" cy="712.4" fill="rgba(34, 40, 49, 1)"></circle><circle r="5" cx="1425.65" cy="-66.52" fill="rgba(34, 40, 49, 1)"></circle><circle r="5" cx="1442.47" cy="223.13" fill="rgba(34, 40, 49, 1)"></circle><circle r="5" cx="1427.88" cy="369.19" fill="rgba(34, 40, 49, 1)"></circle><circle r="5" cx="1400.35" cy="553.68" fill="rgba(34, 40, 49, 1)"></circle><circle r="5" cx="1430.36" cy="651.49" fill="rgba(34, 40, 49, 1)"></circle><circle r="5" cx="1558.15" cy="-68.48" fill="rgba(34, 40, 49, 1)"></circle><circle r="5" cx="1605.82" cy="99.19" fill="rgba(34, 40, 49, 1)"></circle><circle r="5" cx="1548.85" cy="206.58" fill="rgba(34, 40, 49, 1)"></circle><circle r="5" cx="1572.25" cy="339.56" fill="rgba(34, 40, 49, 1)"></circle><circle r="5" cx="1590.26" cy="556.5" fill="rgba(34, 40, 49, 1)"></circle><circle r="5" cx="1543.21" cy="665.86" fill="rgba(34, 40, 49, 1)"></circle><path d="M250.9 703.39L250.9 703.39" stroke="hsl(4.100000000000023, 89.5%, 63%)" stroke-width="1.5"></path><path d="M250.9 703.39L350.89 681.78" stroke="hsl(4.100000000000023, 89.5%, 63%)" stroke-width="1.5"></path><path d="M250.9 703.39L261.55 526.72" stroke="hsl(4.100000000000023, 89.5%, 63%)" stroke-width="1.5"></path><path d="M250.9 703.39L40.63 686.84" stroke="hsl(4.100000000000023, 89.5%, 63%)" stroke-width="1.5"></path><path d="M250.9 703.39L362.82 518.85" stroke="hsl(4.100000000000023, 89.5%, 63%)" stroke-width="1.5"></path><path d="M250.9 703.39L108.05 527.98" stroke="hsl(4.100000000000023, 89.5%, 63%)" stroke-width="1.5"></path><path d="M350.89 681.78L350.89 681.78" stroke="hsl(4.100000000000023, 89.5%, 63%)" stroke-width="1.5"></path><path d="M350.89 681.78L362.82 518.85" stroke="hsl(4.100000000000023, 89.5%, 63%)" stroke-width="1.5"></path><path d="M557.8 499.48L557.8 499.48" stroke="hsl(4.100000000000023, 89.5%, 63%)" stroke-width="1.5"></path><path d="M557.8 499.48L692.32 535.29" stroke="hsl(4.100000000000023, 89.5%, 63%)" stroke-width="1.5"></path><path d="M557.8 499.48L642.19 377.14" stroke="hsl(4.100000000000023, 89.5%, 63%)" stroke-width="1.5"></path><path d="M557.8 499.48L514.59 685.44" stroke="hsl(4.100000000000023, 89.5%, 63%)" stroke-width="1.5"></path><path d="M557.8 499.48L362.82 518.85" stroke="hsl(4.100000000000023, 89.5%, 63%)" stroke-width="1.5"></path><path d="M557.8 499.48L700.63 693.41" stroke="hsl(4.100000000000023, 89.5%, 63%)" stroke-width="1.5"></path><path d="M557.8 499.48L350.89 681.78" stroke="hsl(4.100000000000023, 89.5%, 63%)" stroke-width="1.5"></path><path d="M820.62 362.99L820.62 362.99" stroke="hsl(4.100000000000023, 89.5%, 63%)" stroke-width="1.5"></path><path d="M820.62 362.99L944.94 347.42" stroke="hsl(4.100000000000023, 89.5%, 63%)" stroke-width="1.5"></path><path d="M820.62 362.99L642.19 377.14" stroke="hsl(4.100000000000023, 89.5%, 63%)" stroke-width="1.5"></path><path d="M1298.91 656.67L1298.91 656.67" stroke="hsl(4.100000000000023, 89.5%, 63%)" stroke-width="1.5"></path><path d="M1298.91 656.67L1296.04 546.62" stroke="hsl(4.100000000000023, 89.5%, 63%)" stroke-width="1.5"></path><path d="M1298.91 656.67L1413.97 702.23" stroke="hsl(4.100000000000023, 89.5%, 63%)" stroke-width="1.5"></path><path d="M1298.91 656.67L1434.3 549.08" stroke="hsl(4.100000000000023, 89.5%, 63%)" stroke-width="1.5"></path><path d="M1413.97 702.23L1413.97 702.23" stroke="hsl(4.100000000000023, 89.5%, 63%)" stroke-width="1.5"></path><path d="M1413.97 702.23L1561.45 711.65" stroke="hsl(4.100000000000023, 89.5%, 63%)" stroke-width="1.5"></path><path d="M1413.97 702.23L1434.3 549.08" stroke="hsl(4.100000000000023, 89.5%, 63%)" stroke-width="1.5"></path><path d="M1413.97 702.23L1296.04 546.62" stroke="hsl(4.100000000000023, 89.5%, 63%)" stroke-width="1.5"></path><path d="M1413.97 702.23L1548.2 544.51" stroke="hsl(4.100000000000023, 89.5%, 63%)" stroke-width="1.5"></path><path d="M1413.97 702.23L1454.88 402.16" stroke="hsl(4.100000000000023, 89.5%, 63%)" stroke-width="1.5"></path><path d="M1603.83 398.33L1603.83 398.33" stroke="hsl(4.100000000000023, 89.5%, 63%)" stroke-width="1.5"></path><path d="M1603.83 398.33L1454.88 402.16" stroke="hsl(4.100000000000023, 89.5%, 63%)" stroke-width="1.5"></path><path d="M1603.83 398.33L1548.2 544.51" stroke="hsl(4.100000000000023, 89.5%, 63%)" stroke-width="1.5"></path><path d="M1603.83 398.33L1542.53 202.68" stroke="hsl(4.100000000000023, 89.5%, 63%)" stroke-width="1.5"></path><path d="M1603.83 398.33L1434.3 549.08" stroke="hsl(4.100000000000023, 89.5%, 63%)" stroke-width="1.5"></path><path d="M1603.83 398.33L1388.18 215.52" stroke="hsl(4.100000000000023, 89.5%, 63%)" stroke-width="1.5"></path><path d="M-70.84 544.84L-70.84 544.84" stroke="hsl(4.100000000000023, 89.5%, 63%)" stroke-width="1.5"></path><path d="M-70.84 544.84L-107.57 652.85" stroke="hsl(4.100000000000023, 89.5%, 63%)" stroke-width="1.5"></path><path d="M-70.84 544.84L108.05 527.98" stroke="hsl(4.100000000000023, 89.5%, 63%)" stroke-width="1.5"></path><path d="M-70.84 544.84L40.63 686.84" stroke="hsl(4.100000000000023, 89.5%, 63%)" stroke-width="1.5"></path><path d="M-70.84 544.84L261.55 526.72" stroke="hsl(4.100000000000023, 89.5%, 63%)" stroke-width="1.5"></path><path d="M-107.57 652.85L-107.57 652.85" stroke="hsl(4.100000000000023, 89.5%, 63%)" stroke-width="1.5"></path><path d="M-107.57 652.85L40.63 686.84" stroke="hsl(4.100000000000023, 89.5%, 63%)" stroke-width="1.5"></path><path d="M-107.57 652.85L108.05 527.98" stroke="hsl(4.100000000000023, 89.5%, 63%)" stroke-width="1.5"></path><path d="M-107.57 652.85L250.9 703.39" stroke="hsl(4.100000000000023, 89.5%, 63%)" stroke-width="1.5"></path><path d="M108.05 527.98L108.05 527.98" stroke="hsl(4.100000000000023, 89.5%, 63%)" stroke-width="1.5"></path><path d="M108.05 527.98L261.55 526.72" stroke="hsl(4.100000000000023, 89.5%, 63%)" stroke-width="1.5"></path><path d="M108.05 527.98L40.63 686.84" stroke="hsl(4.100000000000023, 89.5%, 63%)" stroke-width="1.5"></path><path d="M40.63 686.84L40.63 686.84" stroke="hsl(4.100000000000023, 89.5%, 63%)" stroke-width="1.5"></path><path d="M40.63 686.84L261.55 526.72" stroke="hsl(4.100000000000023, 89.5%, 63%)" stroke-width="1.5"></path><path d="M261.55 526.72L261.55 526.72" stroke="hsl(4.100000000000023, 89.5%, 63%)" stroke-width="1.5"></path><path d="M261.55 526.72L362.82 518.85" stroke="hsl(4.100000000000023, 89.5%, 63%)" stroke-width="1.5"></path><path d="M261.55 526.72L350.89 681.78" stroke="hsl(4.100000000000023, 89.5%, 63%)" stroke-width="1.5"></path><path d="M261.55 526.72L557.8 499.48" stroke="hsl(4.100000000000023, 89.5%, 63%)" stroke-width="1.5"></path><path d="M362.82 518.85L362.82 518.85" stroke="hsl(4.100000000000023, 89.5%, 63%)" stroke-width="1.5"></path><path d="M362.82 518.85L514.59 685.44" stroke="hsl(4.100000000000023, 89.5%, 63%)" stroke-width="1.5"></path><path d="M514.59 685.44L514.59 685.44" stroke="hsl(4.100000000000023, 89.5%, 63%)" stroke-width="1.5"></path><path d="M514.59 685.44L350.89 681.78" stroke="hsl(4.100000000000023, 89.5%, 63%)" stroke-width="1.5"></path><path d="M514.59 685.44L700.63 693.41" stroke="hsl(4.100000000000023, 89.5%, 63%)" stroke-width="1.5"></path><path d="M514.59 685.44L692.32 535.29" stroke="hsl(4.100000000000023, 89.5%, 63%)" stroke-width="1.5"></path><path d="M642.19 377.14L642.19 377.14" stroke="hsl(4.100000000000023, 89.5%, 63%)" stroke-width="1.5"></path><path d="M692.32 535.29L692.32 535.29" stroke="hsl(4.100000000000023, 89.5%, 63%)" stroke-width="1.5"></path><path d="M692.32 535.29L839.7 558.66" stroke="hsl(4.100000000000023, 89.5%, 63%)" stroke-width="1.5"></path><path d="M692.32 535.29L700.63 693.41" stroke="hsl(4.100000000000023, 89.5%, 63%)" stroke-width="1.5"></path><path d="M692.32 535.29L642.19 377.14" stroke="hsl(4.100000000000023, 89.5%, 63%)" stroke-width="1.5"></path><path d="M692.32 535.29L820.62 362.99" stroke="hsl(4.100000000000023, 89.5%, 63%)" stroke-width="1.5"></path><path d="M700.63 693.41L700.63 693.41" stroke="hsl(4.100000000000023, 89.5%, 63%)" stroke-width="1.5"></path><path d="M700.63 693.41L843.83 712.11" stroke="hsl(4.100000000000023, 89.5%, 63%)" stroke-width="1.5"></path><path d="M839.7 558.66L839.7 558.66" stroke="hsl(4.100000000000023, 89.5%, 63%)" stroke-width="1.5"></path><path d="M839.7 558.66L948.66 562.06" stroke="hsl(4.100000000000023, 89.5%, 63%)" stroke-width="1.5"></path><path d="M839.7 558.66L843.83 712.11" stroke="hsl(4.100000000000023, 89.5%, 63%)" stroke-width="1.5"></path><path d="M839.7 558.66L974.37 695.29" stroke="hsl(4.100000000000023, 89.5%, 63%)" stroke-width="1.5"></path><path d="M839.7 558.66L700.63 693.41" stroke="hsl(4.100000000000023, 89.5%, 63%)" stroke-width="1.5"></path><path d="M843.83 712.11L843.83 712.11" stroke="hsl(4.100000000000023, 89.5%, 63%)" stroke-width="1.5"></path><path d="M843.83 712.11L974.37 695.29" stroke="hsl(4.100000000000023, 89.5%, 63%)" stroke-width="1.5"></path><path d="M944.94 347.42L944.94 347.42" stroke="hsl(4.100000000000023, 89.5%, 63%)" stroke-width="1.5"></path><path d="M944.94 347.42L1110.98 376.04" stroke="hsl(4.100000000000023, 89.5%, 63%)" stroke-width="1.5"></path><path d="M944.94 347.42L1113.13 228.05" stroke="hsl(4.100000000000023, 89.5%, 63%)" stroke-width="1.5"></path><path d="M944.94 347.42L948.66 562.06" stroke="hsl(4.100000000000023, 89.5%, 63%)" stroke-width="1.5"></path><path d="M944.94 347.42L839.7 558.66" stroke="hsl(4.100000000000023, 89.5%, 63%)" stroke-width="1.5"></path><path d="M948.66 562.06L948.66 562.06" stroke="hsl(4.100000000000023, 89.5%, 63%)" stroke-width="1.5"></path><path d="M948.66 562.06L974.37 695.29" stroke="hsl(4.100000000000023, 89.5%, 63%)" stroke-width="1.5"></path><path d="M948.66 562.06L1121.63 538.83" stroke="hsl(4.100000000000023, 89.5%, 63%)" stroke-width="1.5"></path><path d="M948.66 562.06L843.83 712.11" stroke="hsl(4.100000000000023, 89.5%, 63%)" stroke-width="1.5"></path><path d="M974.37 695.29L974.37 695.29" stroke="hsl(4.100000000000023, 89.5%, 63%)" stroke-width="1.5"></path><path d="M974.37 695.29L1121.63 538.83" stroke="hsl(4.100000000000023, 89.5%, 63%)" stroke-width="1.5"></path><path d="M974.37 695.29L700.63 693.41" stroke="hsl(4.100000000000023, 89.5%, 63%)" stroke-width="1.5"></path><path d="M974.37 695.29L692.32 535.29" stroke="hsl(4.100000000000023, 89.5%, 63%)" stroke-width="1.5"></path><path d="M1113.13 228.05L1113.13 228.05" stroke="hsl(4.100000000000023, 89.5%, 63%)" stroke-width="1.5"></path><path d="M1113.13 228.05L1110.98 376.04" stroke="hsl(4.100000000000023, 89.5%, 63%)" stroke-width="1.5"></path><path d="M1113.13 228.05L1287.04 197.37" stroke="hsl(4.100000000000023, 89.5%, 63%)" stroke-width="1.5"></path><path d="M1113.13 228.05L1252.84 74.17" stroke="hsl(4.100000000000023, 89.5%, 63%)" stroke-width="1.5"></path><path d="M1113.13 228.05L1302.36 358.53" stroke="hsl(4.100000000000023, 89.5%, 63%)" stroke-width="1.5"></path><path d="M1110.98 376.04L1110.98 376.04" stroke="hsl(4.100000000000023, 89.5%, 63%)" stroke-width="1.5"></path><path d="M1110.98 376.04L1121.63 538.83" stroke="hsl(4.100000000000023, 89.5%, 63%)" stroke-width="1.5"></path><path d="M1121.63 538.83L1121.63 538.83" stroke="hsl(4.100000000000023, 89.5%, 63%)" stroke-width="1.5"></path><path d="M1121.63 538.83L1296.04 546.62" stroke="hsl(4.100000000000023, 89.5%, 63%)" stroke-width="1.5"></path><path d="M1121.63 538.83L1298.91 656.67" stroke="hsl(4.100000000000023, 89.5%, 63%)" stroke-width="1.5"></path><path d="M1121.63 538.83L1302.36 358.53" stroke="hsl(4.100000000000023, 89.5%, 63%)" stroke-width="1.5"></path><path d="M1252.84 74.17L1252.84 74.17" stroke="hsl(4.100000000000023, 89.5%, 63%)" stroke-width="1.5"></path><path d="M1252.84 74.17L1287.04 197.37" stroke="hsl(4.100000000000023, 89.5%, 63%)" stroke-width="1.5"></path><path d="M1252.84 74.17L1388.18 215.52" stroke="hsl(4.100000000000023, 89.5%, 63%)" stroke-width="1.5"></path><path d="M1287.04 197.37L1287.04 197.37" stroke="hsl(4.100000000000023, 89.5%, 63%)" stroke-width="1.5"></path><path d="M1287.04 197.37L1388.18 215.52" stroke="hsl(4.100000000000023, 89.5%, 63%)" stroke-width="1.5"></path><path d="M1287.04 197.37L1302.36 358.53" stroke="hsl(4.100000000000023, 89.5%, 63%)" stroke-width="1.5"></path><path d="M1302.36 358.53L1302.36 358.53" stroke="hsl(4.100000000000023, 89.5%, 63%)" stroke-width="1.5"></path><path d="M1302.36 358.53L1454.88 402.16" stroke="hsl(4.100000000000023, 89.5%, 63%)" stroke-width="1.5"></path><path d="M1296.04 546.62L1296.04 546.62" stroke="hsl(4.100000000000023, 89.5%, 63%)" stroke-width="1.5"></path><path d="M1296.04 546.62L1434.3 549.08" stroke="hsl(4.100000000000023, 89.5%, 63%)" stroke-width="1.5"></path><path d="M1296.04 546.62L1302.36 358.53" stroke="hsl(4.100000000000023, 89.5%, 63%)" stroke-width="1.5"></path><path d="M1296.04 546.62L1454.88 402.16" stroke="hsl(4.100000000000023, 89.5%, 63%)" stroke-width="1.5"></path><path d="M1444.99 -107.4L1444.99 -107.4" stroke="hsl(4.100000000000023, 89.5%, 63%)" stroke-width="1.5"></path><path d="M1444.99 -107.4L1563.07 -79.06" stroke="hsl(4.100000000000023, 89.5%, 63%)" stroke-width="1.5"></path><path d="M1444.99 -107.4L1605.37 101.57" stroke="hsl(4.100000000000023, 89.5%, 63%)" stroke-width="1.5"></path><path d="M1444.99 -107.4L1252.84 74.17" stroke="hsl(4.100000000000023, 89.5%, 63%)" stroke-width="1.5"></path><path d="M1444.99 -107.4L1542.53 202.68" stroke="hsl(4.100000000000023, 89.5%, 63%)" stroke-width="1.5"></path><path d="M1388.18 215.52L1388.18 215.52" stroke="hsl(4.100000000000023, 89.5%, 63%)" stroke-width="1.5"></path><path d="M1388.18 215.52L1542.53 202.68" stroke="hsl(4.100000000000023, 89.5%, 63%)" stroke-width="1.5"></path><path d="M1454.88 402.16L1454.88 402.16" stroke="hsl(4.100000000000023, 89.5%, 63%)" stroke-width="1.5"></path><path d="M1454.88 402.16L1434.3 549.08" stroke="hsl(4.100000000000023, 89.5%, 63%)" stroke-width="1.5"></path><path d="M1434.3 549.08L1434.3 549.08" stroke="hsl(4.100000000000023, 89.5%, 63%)" stroke-width="1.5"></path><path d="M1434.3 549.08L1548.2 544.51" stroke="hsl(4.100000000000023, 89.5%, 63%)" stroke-width="1.5"></path><path d="M1563.07 -79.06L1563.07 -79.06" stroke="hsl(4.100000000000023, 89.5%, 63%)" stroke-width="1.5"></path><path d="M1563.07 -79.06L1605.37 101.57" stroke="hsl(4.100000000000023, 89.5%, 63%)" stroke-width="1.5"></path><path d="M1563.07 -79.06L1542.53 202.68" stroke="hsl(4.100000000000023, 89.5%, 63%)" stroke-width="1.5"></path><path d="M1563.07 -79.06L1388.18 215.52" stroke="hsl(4.100000000000023, 89.5%, 63%)" stroke-width="1.5"></path><path d="M1563.07 -79.06L1252.84 74.17" stroke="hsl(4.100000000000023, 89.5%, 63%)" stroke-width="1.5"></path><path d="M1563.07 -79.06L1287.04 197.37" stroke="hsl(4.100000000000023, 89.5%, 63%)" stroke-width="1.5"></path><path d="M1605.37 101.57L1605.37 101.57" stroke="hsl(4.100000000000023, 89.5%, 63%)" stroke-width="1.5"></path><path d="M1605.37 101.57L1542.53 202.68" stroke="hsl(4.100000000000023, 89.5%, 63%)" stroke-width="1.5"></path><path d="M1542.53 202.68L1542.53 202.68" stroke="hsl(4.100000000000023, 89.5%, 63%)" stroke-width="1.5"></path><path d="M1542.53 202.68L1454.88 402.16" stroke="hsl(4.100000000000023, 89.5%, 63%)" stroke-width="1.5"></path><path d="M1542.53 202.68L1287.04 197.37" stroke="hsl(4.100000000000023, 89.5%, 63%)" stroke-width="1.5"></path><path d="M1548.2 544.51L1548.2 544.51" stroke="hsl(4.100000000000023, 89.5%, 63%)" stroke-width="1.5"></path><path d="M1548.2 544.51L1561.45 711.65" stroke="hsl(4.100000000000023, 89.5%, 63%)" stroke-width="1.5"></path><path d="M1548.2 544.51L1454.88 402.16" stroke="hsl(4.100000000000023, 89.5%, 63%)" stroke-width="1.5"></path><path d="M1548.2 544.51L1296.04 546.62" stroke="hsl(4.100000000000023, 89.5%, 63%)" stroke-width="1.5"></path><path d="M1561.45 711.65L1561.45 711.65" stroke="hsl(4.100000000000023, 89.5%, 63%)" stroke-width="1.5"></path><path d="M1561.45 711.65L1434.3 549.08" stroke="hsl(4.100000000000023, 89.5%, 63%)" stroke-width="1.5"></path><path d="M1561.45 711.65L1298.91 656.67" stroke="hsl(4.100000000000023, 89.5%, 63%)" stroke-width="1.5"></path><path d="M1561.45 711.65L1296.04 546.62" stroke="hsl(4.100000000000023, 89.5%, 63%)" stroke-width="1.5"></path><circle r="25" cx="250.9" cy="703.39" fill="url(&quot;#SvgjsRadialGradient1009&quot;)"></circle><circle r="25" cx="350.89" cy="681.78" fill="url(&quot;#SvgjsRadialGradient1009&quot;)"></circle><circle r="25" cx="557.8" cy="499.48" fill="url(&quot;#SvgjsRadialGradient1009&quot;)"></circle><circle r="25" cx="820.62" cy="362.99" fill="url(&quot;#SvgjsRadialGradient1009&quot;)"></circle><circle r="25" cx="1298.91" cy="656.67" fill="url(&quot;#SvgjsRadialGradient1009&quot;)"></circle><circle r="25" cx="1413.97" cy="702.23" fill="url(&quot;#SvgjsRadialGradient1009&quot;)"></circle><circle r="25" cx="1603.83" cy="398.33" fill="url(&quot;#SvgjsRadialGradient1009&quot;)"></circle><circle r="5" cx="-70.84" cy="544.84" fill="#f58e86"></circle><circle r="5" cx="-107.57" cy="652.85" fill="#f58e86"></circle><circle r="5" cx="108.05" cy="527.98" fill="#f58e86"></circle><circle r="5" cx="40.63" cy="686.84" fill="#f58e86"></circle><circle r="5" cx="261.55" cy="526.72" fill="#f58e86"></circle><circle r="5" cx="362.82" cy="518.85" fill="#f58e86"></circle><circle r="5" cx="514.59" cy="685.44" fill="#f58e86"></circle><circle r="5" cx="642.19" cy="377.14" fill="#f58e86"></circle><circle r="5" cx="692.32" cy="535.29" fill="#f58e86"></circle><circle r="5" cx="700.63" cy="693.41" fill="#f58e86"></circle><circle r="5" cx="839.7" cy="558.66" fill="#f58e86"></circle><circle r="5" cx="843.83" cy="712.11" fill="#f58e86"></circle><circle r="5" cx="944.94" cy="347.42" fill="#f58e86"></circle><circle r="5" cx="948.66" cy="562.06" fill="#f58e86"></circle><circle r="5" cx="974.37" cy="695.29" fill="#f58e86"></circle><circle r="5" cx="1113.13" cy="228.05" fill="#f58e86"></circle><circle r="5" cx="1110.98" cy="376.04" fill="#f58e86"></circle><circle r="5" cx="1121.63" cy="538.83" fill="#f58e86"></circle><circle r="5" cx="1252.84" cy="74.17" fill="#f58e86"></circle><circle r="5" cx="1287.04" cy="197.37" fill="#f58e86"></circle><circle r="5" cx="1302.36" cy="358.53" fill="#f58e86"></circle><circle r="5" cx="1296.04" cy="546.62" fill="#f58e86"></circle><circle r="5" cx="1444.99" cy="-107.4" fill="#f58e86"></circle><circle r="5" cx="1388.18" cy="215.52" fill="#f58e86"></circle><circle r="5" cx="1454.88" cy="402.16" fill="#f58e86"></circle><circle r="5" cx="1434.3" cy="549.08" fill="#f58e86"></circle><circle r="5" cx="1563.07" cy="-79.06" fill="#f58e86"></circle><circle r="5" cx="1605.37" cy="101.57" fill="#f58e86"></circle><circle r="5" cx="1542.53" cy="202.68" fill="#f58e86"></circle><circle r="5" cx="1548.2" cy="544.51" fill="#f58e86"></circle><circle r="5" cx="1561.45" cy="711.65" fill="#f58e86"></circle></g><defs><mask id="SvgjsMask1008"><rect width="1440" height="560" fill="#ffffff"></rect></mask><radialGradient id="SvgjsRadialGradient1009"><stop stop-color="#ffffff" offset="0.1"></stop><stop stop-color="rgba(234, 28, 13, 1)" offset="0.2"></stop><stop stop-color="rgba(234, 28, 13, 0)" offset="1"></stop></radialGradient></defs></svg>